<svg width="21" height="16" viewBox="0 0 21 16" xmlns="http://www.w3.org/2000/svg">
<path d="M16.05 5.98119L15.7992 6.4326C15.6989 6.59561 15.4982 6.67085 15.3227 6.59561C14.9465 6.45768 14.6079 6.25705 14.3195 6.00627C14.1691 5.89342 14.1315 5.68025 14.2318 5.51724L14.4826 5.06583C14.2694 4.81505 14.0938 4.52664 13.981 4.21316H13.4669C13.2788 4.21316 13.1158 4.07523 13.0782 3.88715C13.0155 3.51097 13.0155 3.10972 13.0782 2.721C13.1032 2.53291 13.2663 2.39498 13.4669 2.39498H13.981C14.0938 2.0815 14.2694 1.78056 14.4826 1.52978L14.2318 1.07837C14.1315 0.915359 14.1691 0.702193 14.3195 0.58934C14.6205 0.338556 14.959 0.13793 15.3227 -1.4957e-06C15.4982 -0.0626974 15.6989 -1.48825e-06 15.7992 0.175547L16.05 0.626958C16.376 0.564262 16.7145 0.564262 17.0405 0.626958L17.2913 0.175547C17.3791 0.0125377 17.5923 -0.0626974 17.7678 -1.4957e-06C18.144 0.13793 18.47 0.338556 18.771 0.58934C18.9089 0.702193 18.9465 0.915359 18.8587 1.07837L18.5954 1.52978C18.8086 1.78056 18.9841 2.06896 19.097 2.39498H19.6111C19.7992 2.39498 19.9622 2.53291 19.9998 2.721C20.0625 3.09718 20.0625 3.49843 19.9998 3.88715C19.9747 4.07523 19.8117 4.21316 19.6111 4.21316H19.097C18.9841 4.52664 18.8086 4.81505 18.5954 5.06583L18.8587 5.51724C18.9465 5.68025 18.9214 5.89342 18.771 6.00627C18.47 6.25705 18.1315 6.45768 17.7678 6.59561C17.5923 6.65831 17.3916 6.59561 17.2913 6.4326L17.0405 5.98119C16.7271 6.04389 16.3885 6.04389 16.05 5.98119ZM15.7239 4.13793C16.9277 5.06583 18.307 3.68652 17.3791 2.48276C16.1753 1.55486 14.796 2.93417 15.7239 4.13793ZM12.1126 8.96552L13.1659 9.49216C13.4794 9.66771 13.6173 10.0564 13.492 10.4075C13.2161 11.1599 12.6644 11.8621 12.1628 12.4639C11.9371 12.7398 11.5233 12.815 11.2098 12.627L10.2945 12.1003C9.7929 12.5266 9.20356 12.8652 8.5766 13.0909V14.1442C8.5766 14.5078 8.31327 14.8213 7.96218 14.884C7.18475 15.0094 6.38224 15.0219 5.57973 14.884C5.21609 14.8213 4.95277 14.5078 4.95277 14.1442V13.0909C4.31327 12.8777 3.73647 12.5392 3.2349 12.1003L2.31954 12.627C2.00606 12.8025 1.60481 12.7398 1.36656 12.4639C0.864998 11.8495 0.325813 11.1599 0.0499505 10.4075C-0.0754414 10.069 0.0624897 9.68025 0.375969 9.49216L1.41672 8.96552C1.29133 8.31348 1.29133 7.63636 1.41672 6.97179L0.375969 6.44514C0.0624897 6.26959 -0.0754414 5.88088 0.0499505 5.54232C0.325813 4.78997 0.864998 4.08777 1.3791 3.48589C1.61735 3.21003 2.00606 3.13479 2.33208 3.32288L3.24744 3.84953C3.74901 3.4232 4.33835 3.08464 4.96531 2.85893V1.78056C4.96531 1.41693 5.21609 1.10345 5.57973 1.04075C6.34462 0.90282 7.15967 0.90282 7.96218 1.04075C8.32581 1.10345 8.58914 1.41693 8.58914 1.78056V2.83385C9.22863 3.05956 9.80544 3.39812 10.307 3.82445L11.2224 3.2978C11.5233 3.12226 11.9246 3.19749 12.1628 3.47335C12.6769 4.07523 13.2036 4.77743 13.4794 5.54232C13.6048 5.88088 13.4794 6.26959 13.1659 6.45768L12.1126 6.97179C12.238 7.63636 12.238 8.30094 12.1126 8.96552ZM8.42613 9.63009C10.2819 7.21003 7.5233 4.45141 5.11578 6.30721C3.25998 8.72727 6.00606 11.4859 8.42613 9.63009ZM16.05 15.348L15.7992 15.7994C15.6989 15.9624 15.4982 16.0376 15.3227 15.9749C14.9465 15.837 14.6079 15.6364 14.3195 15.3856C14.1691 15.2727 14.1315 15.0596 14.2318 14.8965L14.4826 14.4451C14.2694 14.1944 14.0938 13.906 13.981 13.5925H13.4669C13.2788 13.5925 13.1158 13.4545 13.0782 13.2665C13.0155 12.8903 13.0155 12.489 13.0782 12.1003C13.1032 11.9122 13.2663 11.7743 13.4669 11.7743H13.981C14.0938 11.4608 14.2694 11.1599 14.4826 10.9091L14.2318 10.4577C14.1315 10.2947 14.1691 10.0815 14.3195 9.96865C14.6205 9.71787 14.959 9.51724 15.3227 9.37931C15.4982 9.31661 15.6989 9.37931 15.7992 9.54232L16.05 9.99373C16.376 9.93103 16.7145 9.93103 17.0405 9.99373L17.2913 9.54232C17.3791 9.37931 17.5923 9.30407 17.7678 9.37931C18.144 9.51724 18.47 9.71787 18.771 9.96865C18.9089 10.0815 18.9465 10.2947 18.8587 10.4577L18.5954 10.9091C18.8086 11.1599 18.9841 11.4483 19.097 11.7743H19.6111C19.7992 11.7743 19.9622 11.9122 19.9998 12.1003C20.0625 12.4765 20.0625 12.8652 19.9998 13.2665C19.9747 13.4545 19.8117 13.5925 19.6111 13.5925H19.097C18.9841 13.906 18.8086 14.1944 18.5954 14.4451L18.8587 14.8965C18.9465 15.0596 18.9214 15.2727 18.771 15.3856C18.47 15.6364 18.1315 15.837 17.7678 15.9749C17.5923 16.0376 17.3916 15.9749 17.2913 15.7994L17.0405 15.348C16.7271 15.4107 16.3885 15.4107 16.05 15.348ZM15.7239 13.5047C16.9277 14.4326 18.307 13.0533 17.3791 11.8495C16.1753 10.9216 14.796 12.3009 15.7239 13.5047Z"/>
</svg>
