<svg width="16" height="16" viewBox="0 0 16 16" xmlns="http://www.w3.org/2000/svg">
<path d="M8 0C12.42 0 16 3.13 16 7C16 9.19 14.85 11.14 13.05 12.43C12.75 12.65 12.57 13 12.63 13.36L12.92 15.43C12.96 15.73 12.73 16 12.43 16H10V14.25C10 14.11 9.89 14 9.75 14H9.25C9.11 14 9 14.11 9 14.25V16H7V14.25C7 14.11 6.89 14 6.75 14H6.25C6.11 14 6 14.11 6 14.25V16H3.57C3.27 16 3.04 15.73 3.08 15.43L3.37 13.36C3.42 12.99 3.25 12.64 2.95 12.43C1.15 11.14 0 9.19 0 7C0 3.13 3.58 0 8 0ZM5 10C6.1 10 7 9.1 7 8C7 6.9 6.1 6 5 6C3.9 6 3 6.9 3 8C3 9.1 3.9 10 5 10ZM11 10C12.1 10 13 9.1 13 8C13 6.9 12.1 6 11 6C9.9 6 9 6.9 9 8C9 9.1 9.9 10 11 10Z"/>
</svg>
