<svg width="24" height="24" viewBox="0 0 24 24" xmlns="http://www.w3.org/2000/svg">
<path fill-rule="evenodd" clip-rule="evenodd" d="M23.52 12.2728C23.52 11.4219 23.4436 10.6037 23.3018 9.81824H12V14.4601H18.4582C18.18 15.9601 17.3345 17.231 16.0636 18.0819V21.0928H19.9418C22.2109 19.0037 23.52 15.9273 23.52 12.2728Z"/>
<path fill-rule="evenodd" clip-rule="evenodd" d="M11.999 24C15.239 24 17.9554 22.9255 19.9408 21.0928L16.0627 18.0818C14.9881 18.8018 13.6136 19.2273 11.999 19.2273C8.87357 19.2273 6.22812 17.1164 5.28448 14.28H1.27539V17.3891C3.24994 21.3109 7.30812 24 11.999 24Z"/>
<path fill-rule="evenodd" clip-rule="evenodd" d="M5.28545 14.2801C5.04545 13.5601 4.90909 12.791 4.90909 12.0001C4.90909 11.2091 5.04545 10.4401 5.28545 9.72005V6.61096H1.27636C0.463636 8.23096 0 10.0637 0 12.0001C0 13.9364 0.463636 15.7691 1.27636 17.3891L5.28545 14.2801Z"/>
<path fill-rule="evenodd" clip-rule="evenodd" d="M11.999 4.77273C13.7608 4.77273 15.3427 5.37818 16.5863 6.56727L20.0281 3.12545C17.9499 1.18909 15.2336 0 11.999 0C7.30812 0 3.24994 2.68909 1.27539 6.61091L5.28448 9.72C6.22812 6.88364 8.87357 4.77273 11.999 4.77273Z"/>
</svg>
