<svg width="31" height="31" viewBox="0 0 31 31" xmlns="http://www.w3.org/2000/svg">
<path d="M3.98846 7.99524C6.00246 7.99524 7.63513 6.36257 7.63513 4.34857C7.63513 2.33457 6.00246 0.701904 3.98846 0.701904C1.97446 0.701904 0.341797 2.33457 0.341797 4.34857C0.341797 6.36257 1.97446 7.99524 3.98846 7.99524Z"/>
<path d="M11.0785 10.7581V30.9897H17.3601V20.9847C17.3601 18.3447 17.8568 15.7881 21.1301 15.7881C24.3585 15.7881 24.3985 18.8064 24.3985 21.1514V30.9914H30.6835V19.8964C30.6835 14.4464 29.5101 10.2581 23.1401 10.2581C20.0818 10.2581 18.0318 11.9364 17.1935 13.5247H17.1085V10.7581H11.0785ZM0.841797 10.7581H7.13346V30.9897H0.841797V10.7581Z"/>
</svg>
