<svg width="25" height="24" viewBox="0 0 25 24" fill="none" xmlns="http://www.w3.org/2000/svg">
<path d="M12.7052 0C8.06118 0 4.30518 3.756 4.30518 8.4C4.30518 14.7 12.7052 24 12.7052 24C12.7052 24 21.1052 14.7 21.1052 8.4C21.1052 3.756 17.3492 0 12.7052 0ZM6.70518 8.4C6.70518 5.088 9.39318 2.4 12.7052 2.4C16.0172 2.4 18.7052 5.088 18.7052 8.4C18.7052 11.856 15.2492 17.028 12.7052 20.256C10.2092 17.052 6.70518 11.82 6.70518 8.4Z" fill="#0B0A14"/>
<path d="M12.7051 11.4C14.3619 11.4 15.7051 10.0569 15.7051 8.40002C15.7051 6.74317 14.3619 5.40002 12.7051 5.40002C11.0482 5.40002 9.70508 6.74317 9.70508 8.40002C9.70508 10.0569 11.0482 11.4 12.7051 11.4Z" fill="#0B0A14"/>
</svg>
