<svg width="31" height="26" viewBox="0 0 31 26" xmlns="http://www.w3.org/2000/svg">
<path d="M30.2856 3.74381C29.4502 4.98644 28.4253 6.04572 27.2109 6.92165C27.2229 7.15657 27.2289 7.42209 27.2289 7.71821C27.2289 9.36352 26.989 11.0108 26.5092 12.6601C26.0295 14.3094 25.2967 15.8881 24.3108 17.3961C23.3249 18.9042 22.1505 20.2402 20.7876 21.4041C19.4247 22.5681 17.7864 23.4961 15.8728 24.1883C13.9592 24.8805 11.9083 25.2266 9.72019 25.2266C6.30522 25.2266 3.16037 24.3047 0.285645 22.4608C0.795875 22.5176 1.28523 22.546 1.75371 22.546C4.60663 22.546 7.15475 21.6673 9.39807 19.9098C8.06788 19.8854 6.87659 19.4759 5.8242 18.6814C4.77182 17.8868 4.04759 16.8715 3.65152 15.6355C4.04301 15.7101 4.42939 15.7473 4.81068 15.7473C5.35951 15.7473 5.89955 15.6758 6.4308 15.5326C5.01124 15.2483 3.83359 14.5413 2.89785 13.4115C1.96215 12.2817 1.49429 10.9778 1.49429 9.49964V9.42346C2.36563 9.90591 3.29505 10.1625 4.28254 10.1933C3.4416 9.63271 2.77487 8.90164 2.28233 8.00012C1.78976 7.0986 1.54347 6.12299 1.54347 5.0733C1.54347 3.96623 1.82088 2.93534 2.37571 1.98063C3.91946 3.87506 5.79004 5.38915 7.98745 6.52289C10.1849 7.65666 12.5423 8.28631 15.0597 8.41186C14.9524 7.96439 14.8986 7.49743 14.8984 7.01099C14.8984 5.31251 15.4995 3.86225 16.7016 2.66022C17.9037 1.45819 19.354 0.857178 21.0525 0.857178C22.8308 0.857178 24.3286 1.50468 25.546 2.79969C26.937 2.52417 28.2394 2.02582 29.4533 1.30465C28.9856 2.7764 28.0845 3.91175 26.7499 4.71071C27.9765 4.56495 29.1551 4.24265 30.2856 3.74381H30.2856Z"/>
</svg>
