<svg width="56" height="38" viewBox="0 0 56 38" xmlns="http://www.w3.org/2000/svg">
<path d="M54.8333 6.18301C54.5163 5.05189 53.8986 4.02782 53.046 3.21968C52.1693 2.38669 51.0949 1.79083 49.924 1.48835C45.542 0.333348 27.986 0.333348 27.986 0.333348C20.6671 0.250078 13.35 0.616322 6.076 1.43001C4.90511 1.75484 3.83265 2.36402 2.954 3.20335C2.09066 4.03401 1.46533 5.05835 1.13866 6.18068C0.353948 10.4081 -0.0273205 14.7005 -1.86129e-06 19C-0.0280019 23.2957 0.352331 27.5867 1.13866 31.8193C1.45833 32.937 2.08133 33.9567 2.947 34.7803C3.81266 35.604 4.89067 36.199 6.076 36.514C10.5163 37.6667 27.986 37.6667 27.986 37.6667C35.3142 37.7501 42.6406 37.3838 49.924 36.57C51.0949 36.2675 52.1693 35.6717 53.046 34.8387C53.9093 34.015 54.523 32.9907 54.831 31.8753C55.6362 27.6496 56.0277 23.3554 56 19.0537C56.0606 14.7338 55.6696 10.4193 54.8333 6.18068V6.18301ZM22.4047 26.9893V11.013L37.0113 19.0023L22.4047 26.9893Z"/>
</svg>
